<mxfile host="app.diagrams.net" modified="2023-09-18T06:09:53.778Z" agent="Mozilla/5.0 (Windows NT 10.0; Win64; x64) AppleWebKit/537.36 (KHTML, like Gecko) Chrome/116.0.0.0 Safari/537.36" etag="OwpCaHwq6h7TOq8qEYn_" version="21.7.5" type="device">
  <diagram name="Page-1" id="8hbxeFc-vcafUQkk088H">
    <mxGraphModel dx="398" dy="254" grid="1" gridSize="10" guides="1" tooltips="1" connect="1" arrows="1" fold="1" page="1" pageScale="1" pageWidth="827" pageHeight="1169" math="0" shadow="0">
      <root>
        <mxCell id="0" />
        <mxCell id="1" parent="0" />
        <mxCell id="2RvS-FlQX7kF21roaUc3-4" style="edgeStyle=orthogonalEdgeStyle;rounded=0;orthogonalLoop=1;jettySize=auto;html=1;exitX=1;exitY=0.5;exitDx=0;exitDy=0;entryX=-0.03;entryY=0.499;entryDx=0;entryDy=0;entryPerimeter=0;" edge="1" parent="1" target="2RvS-FlQX7kF21roaUc3-3">
          <mxGeometry relative="1" as="geometry">
            <mxPoint x="760" y="300" as="sourcePoint" />
            <Array as="points" />
          </mxGeometry>
        </mxCell>
        <mxCell id="2RvS-FlQX7kF21roaUc3-5" style="edgeStyle=orthogonalEdgeStyle;rounded=0;orthogonalLoop=1;jettySize=auto;html=1;exitX=0.967;exitY=0.512;exitDx=0;exitDy=0;exitPerimeter=0;" edge="1" parent="1" source="2RvS-FlQX7kF21roaUc3-3">
          <mxGeometry relative="1" as="geometry">
            <mxPoint x="880" y="300" as="targetPoint" />
          </mxGeometry>
        </mxCell>
        <mxCell id="2RvS-FlQX7kF21roaUc3-3" value="" style="shape=sumEllipse;perimeter=ellipsePerimeter;whiteSpace=wrap;html=1;backgroundOutline=1;" vertex="1" parent="1">
          <mxGeometry x="800" y="280" width="40" height="40" as="geometry" />
        </mxCell>
        <mxCell id="2RvS-FlQX7kF21roaUc3-14" style="edgeStyle=orthogonalEdgeStyle;rounded=0;orthogonalLoop=1;jettySize=auto;html=1;" edge="1" parent="1" source="2RvS-FlQX7kF21roaUc3-8">
          <mxGeometry relative="1" as="geometry">
            <mxPoint x="740" y="280" as="targetPoint" />
          </mxGeometry>
        </mxCell>
        <mxCell id="2RvS-FlQX7kF21roaUc3-8" value="2" style="shape=ext;double=1;rounded=0;whiteSpace=wrap;html=1;" vertex="1" parent="1">
          <mxGeometry x="600" y="200" width="80" height="40" as="geometry" />
        </mxCell>
        <mxCell id="2RvS-FlQX7kF21roaUc3-13" style="edgeStyle=orthogonalEdgeStyle;rounded=0;orthogonalLoop=1;jettySize=auto;html=1;exitX=1;exitY=0.5;exitDx=0;exitDy=0;entryX=0;entryY=0.5;entryDx=0;entryDy=0;" edge="1" parent="1" source="2RvS-FlQX7kF21roaUc3-9">
          <mxGeometry relative="1" as="geometry">
            <mxPoint x="720" y="300" as="targetPoint" />
            <Array as="points">
              <mxPoint x="720" y="300" />
            </Array>
          </mxGeometry>
        </mxCell>
        <mxCell id="2RvS-FlQX7kF21roaUc3-9" value="2.5" style="shape=ext;double=1;rounded=0;whiteSpace=wrap;html=1;" vertex="1" parent="1">
          <mxGeometry x="600" y="280" width="80" height="40" as="geometry" />
        </mxCell>
        <mxCell id="2RvS-FlQX7kF21roaUc3-15" style="edgeStyle=orthogonalEdgeStyle;rounded=0;orthogonalLoop=1;jettySize=auto;html=1;entryX=0.5;entryY=1;entryDx=0;entryDy=0;" edge="1" parent="1" source="2RvS-FlQX7kF21roaUc3-10">
          <mxGeometry relative="1" as="geometry">
            <mxPoint x="740" y="320" as="targetPoint" />
          </mxGeometry>
        </mxCell>
        <mxCell id="2RvS-FlQX7kF21roaUc3-10" value="0.5" style="shape=ext;double=1;rounded=0;whiteSpace=wrap;html=1;" vertex="1" parent="1">
          <mxGeometry x="600" y="360" width="80" height="40" as="geometry" />
        </mxCell>
        <mxCell id="2RvS-FlQX7kF21roaUc3-22" style="edgeStyle=orthogonalEdgeStyle;rounded=0;orthogonalLoop=1;jettySize=auto;html=1;entryX=0.5;entryY=1;entryDx=0;entryDy=0;" edge="1" parent="1" source="2RvS-FlQX7kF21roaUc3-11" target="2RvS-FlQX7kF21roaUc3-3">
          <mxGeometry relative="1" as="geometry" />
        </mxCell>
        <mxCell id="2RvS-FlQX7kF21roaUc3-11" value="3" style="shape=ext;double=1;rounded=0;whiteSpace=wrap;html=1;" vertex="1" parent="1">
          <mxGeometry x="600" y="440" width="80" height="40" as="geometry" />
        </mxCell>
        <mxCell id="2RvS-FlQX7kF21roaUc3-19" value="" style="shape=cross;whiteSpace=wrap;html=1;" vertex="1" parent="1">
          <mxGeometry x="815" y="307" width="10" height="10" as="geometry" />
        </mxCell>
        <mxCell id="2RvS-FlQX7kF21roaUc3-26" value="" style="shape=cross;whiteSpace=wrap;html=1;" vertex="1" parent="1">
          <mxGeometry x="803" y="296" width="10" height="10" as="geometry" />
        </mxCell>
        <mxCell id="2RvS-FlQX7kF21roaUc3-27" value="" style="rounded=0;whiteSpace=wrap;html=1;" vertex="1" parent="1">
          <mxGeometry x="723" y="298" width="10" height="5" as="geometry" />
        </mxCell>
        <mxCell id="2RvS-FlQX7kF21roaUc3-29" value="y" style="text;html=1;align=center;verticalAlign=middle;resizable=0;points=[];autosize=1;strokeColor=none;fillColor=none;" vertex="1" parent="1">
          <mxGeometry x="840" y="264" width="30" height="30" as="geometry" />
        </mxCell>
        <mxCell id="2RvS-FlQX7kF21roaUc3-34" style="edgeStyle=orthogonalEdgeStyle;rounded=0;orthogonalLoop=1;jettySize=auto;html=1;exitX=1;exitY=0.5;exitDx=0;exitDy=0;entryX=0;entryY=0.5;entryDx=0;entryDy=0;" edge="1" parent="1" source="2RvS-FlQX7kF21roaUc3-30" target="2RvS-FlQX7kF21roaUc3-8">
          <mxGeometry relative="1" as="geometry" />
        </mxCell>
        <mxCell id="2RvS-FlQX7kF21roaUc3-30" value="1/s" style="whiteSpace=wrap;html=1;aspect=fixed;" vertex="1" parent="1">
          <mxGeometry x="520" y="200" width="40" height="40" as="geometry" />
        </mxCell>
        <mxCell id="2RvS-FlQX7kF21roaUc3-62" style="edgeStyle=orthogonalEdgeStyle;rounded=0;orthogonalLoop=1;jettySize=auto;html=1;entryX=0;entryY=0.5;entryDx=0;entryDy=0;" edge="1" parent="1" source="2RvS-FlQX7kF21roaUc3-31" target="2RvS-FlQX7kF21roaUc3-9">
          <mxGeometry relative="1" as="geometry" />
        </mxCell>
        <mxCell id="2RvS-FlQX7kF21roaUc3-63" style="edgeStyle=orthogonalEdgeStyle;rounded=0;orthogonalLoop=1;jettySize=auto;html=1;entryX=0;entryY=0.5;entryDx=0;entryDy=0;" edge="1" parent="1" source="2RvS-FlQX7kF21roaUc3-31" target="2RvS-FlQX7kF21roaUc3-30">
          <mxGeometry relative="1" as="geometry">
            <Array as="points">
              <mxPoint x="580" y="300" />
              <mxPoint x="580" y="260" />
              <mxPoint x="500" y="260" />
              <mxPoint x="500" y="220" />
            </Array>
          </mxGeometry>
        </mxCell>
        <mxCell id="2RvS-FlQX7kF21roaUc3-31" value="1/s" style="whiteSpace=wrap;html=1;aspect=fixed;" vertex="1" parent="1">
          <mxGeometry x="520" y="280" width="40" height="40" as="geometry" />
        </mxCell>
        <mxCell id="2RvS-FlQX7kF21roaUc3-36" style="edgeStyle=orthogonalEdgeStyle;rounded=0;orthogonalLoop=1;jettySize=auto;html=1;exitX=1;exitY=0.5;exitDx=0;exitDy=0;entryX=0;entryY=0.5;entryDx=0;entryDy=0;" edge="1" parent="1" source="2RvS-FlQX7kF21roaUc3-32" target="2RvS-FlQX7kF21roaUc3-10">
          <mxGeometry relative="1" as="geometry" />
        </mxCell>
        <mxCell id="2RvS-FlQX7kF21roaUc3-32" value="1/s" style="whiteSpace=wrap;html=1;aspect=fixed;" vertex="1" parent="1">
          <mxGeometry x="520" y="360" width="40" height="40" as="geometry" />
        </mxCell>
        <mxCell id="2RvS-FlQX7kF21roaUc3-37" style="edgeStyle=orthogonalEdgeStyle;rounded=0;orthogonalLoop=1;jettySize=auto;html=1;exitX=1;exitY=0.5;exitDx=0;exitDy=0;entryX=0;entryY=0.5;entryDx=0;entryDy=0;" edge="1" parent="1" source="2RvS-FlQX7kF21roaUc3-33" target="2RvS-FlQX7kF21roaUc3-11">
          <mxGeometry relative="1" as="geometry" />
        </mxCell>
        <mxCell id="2RvS-FlQX7kF21roaUc3-58" style="edgeStyle=orthogonalEdgeStyle;rounded=0;orthogonalLoop=1;jettySize=auto;html=1;entryX=0.5;entryY=1;entryDx=0;entryDy=0;" edge="1" parent="1" source="2RvS-FlQX7kF21roaUc3-33" target="2RvS-FlQX7kF21roaUc3-47">
          <mxGeometry relative="1" as="geometry">
            <Array as="points">
              <mxPoint x="580" y="460" />
              <mxPoint x="580" y="500" />
              <mxPoint x="460" y="500" />
            </Array>
          </mxGeometry>
        </mxCell>
        <mxCell id="2RvS-FlQX7kF21roaUc3-33" value="1/s" style="whiteSpace=wrap;html=1;aspect=fixed;" vertex="1" parent="1">
          <mxGeometry x="520" y="440" width="40" height="40" as="geometry" />
        </mxCell>
        <mxCell id="2RvS-FlQX7kF21roaUc3-51" style="edgeStyle=orthogonalEdgeStyle;rounded=0;orthogonalLoop=1;jettySize=auto;html=1;entryX=0;entryY=0.5;entryDx=0;entryDy=0;" edge="1" parent="1" source="2RvS-FlQX7kF21roaUc3-39" target="2RvS-FlQX7kF21roaUc3-44">
          <mxGeometry relative="1" as="geometry" />
        </mxCell>
        <mxCell id="2RvS-FlQX7kF21roaUc3-52" style="edgeStyle=orthogonalEdgeStyle;rounded=0;orthogonalLoop=1;jettySize=auto;html=1;entryX=0;entryY=0.5;entryDx=0;entryDy=0;" edge="1" parent="1" source="2RvS-FlQX7kF21roaUc3-39" target="2RvS-FlQX7kF21roaUc3-47">
          <mxGeometry relative="1" as="geometry">
            <Array as="points">
              <mxPoint x="420" y="380" />
              <mxPoint x="420" y="460" />
            </Array>
          </mxGeometry>
        </mxCell>
        <mxCell id="2RvS-FlQX7kF21roaUc3-53" style="edgeStyle=orthogonalEdgeStyle;rounded=0;orthogonalLoop=1;jettySize=auto;html=1;entryX=0;entryY=0.5;entryDx=0;entryDy=0;" edge="1" parent="1" source="2RvS-FlQX7kF21roaUc3-39" target="2RvS-FlQX7kF21roaUc3-31">
          <mxGeometry relative="1" as="geometry">
            <Array as="points">
              <mxPoint x="420" y="380" />
              <mxPoint x="420" y="300" />
            </Array>
          </mxGeometry>
        </mxCell>
        <mxCell id="2RvS-FlQX7kF21roaUc3-39" value="" style="shape=waypoint;sketch=0;size=6;pointerEvents=1;points=[];fillColor=none;resizable=0;rotatable=0;perimeter=centerPerimeter;snapToPoint=1;" vertex="1" parent="1">
          <mxGeometry x="370" y="370" width="20" height="20" as="geometry" />
        </mxCell>
        <mxCell id="2RvS-FlQX7kF21roaUc3-41" value="" style="shape=sumEllipse;perimeter=ellipsePerimeter;whiteSpace=wrap;html=1;backgroundOutline=1;" vertex="1" parent="1">
          <mxGeometry x="720" y="280" width="40" height="40" as="geometry" />
        </mxCell>
        <mxCell id="2RvS-FlQX7kF21roaUc3-42" value="" style="shape=cross;whiteSpace=wrap;html=1;" vertex="1" parent="1">
          <mxGeometry x="735" y="284" width="10" height="10" as="geometry" />
        </mxCell>
        <mxCell id="2RvS-FlQX7kF21roaUc3-43" value="" style="rounded=0;whiteSpace=wrap;html=1;" vertex="1" parent="1">
          <mxGeometry x="734" y="311" width="10" height="5" as="geometry" />
        </mxCell>
        <mxCell id="2RvS-FlQX7kF21roaUc3-55" style="edgeStyle=orthogonalEdgeStyle;rounded=0;orthogonalLoop=1;jettySize=auto;html=1;entryX=0;entryY=0.5;entryDx=0;entryDy=0;" edge="1" parent="1" source="2RvS-FlQX7kF21roaUc3-44" target="2RvS-FlQX7kF21roaUc3-32">
          <mxGeometry relative="1" as="geometry" />
        </mxCell>
        <mxCell id="2RvS-FlQX7kF21roaUc3-44" value="" style="shape=sumEllipse;perimeter=ellipsePerimeter;whiteSpace=wrap;html=1;backgroundOutline=1;" vertex="1" parent="1">
          <mxGeometry x="440" y="360" width="40" height="40" as="geometry" />
        </mxCell>
        <mxCell id="2RvS-FlQX7kF21roaUc3-45" value="" style="shape=cross;whiteSpace=wrap;html=1;" vertex="1" parent="1">
          <mxGeometry x="442" y="375" width="10" height="10" as="geometry" />
        </mxCell>
        <mxCell id="2RvS-FlQX7kF21roaUc3-46" value="" style="rounded=0;whiteSpace=wrap;html=1;" vertex="1" parent="1">
          <mxGeometry x="454" y="391" width="10" height="5" as="geometry" />
        </mxCell>
        <mxCell id="2RvS-FlQX7kF21roaUc3-57" style="edgeStyle=orthogonalEdgeStyle;rounded=0;orthogonalLoop=1;jettySize=auto;html=1;entryX=0;entryY=0.5;entryDx=0;entryDy=0;" edge="1" parent="1" source="2RvS-FlQX7kF21roaUc3-47" target="2RvS-FlQX7kF21roaUc3-33">
          <mxGeometry relative="1" as="geometry" />
        </mxCell>
        <mxCell id="2RvS-FlQX7kF21roaUc3-47" value="" style="shape=sumEllipse;perimeter=ellipsePerimeter;whiteSpace=wrap;html=1;backgroundOutline=1;" vertex="1" parent="1">
          <mxGeometry x="440" y="440" width="40" height="40" as="geometry" />
        </mxCell>
        <mxCell id="2RvS-FlQX7kF21roaUc3-48" value="" style="shape=cross;whiteSpace=wrap;html=1;" vertex="1" parent="1">
          <mxGeometry x="444" y="455" width="10" height="10" as="geometry" />
        </mxCell>
        <mxCell id="2RvS-FlQX7kF21roaUc3-49" value="" style="rounded=0;whiteSpace=wrap;html=1;" vertex="1" parent="1">
          <mxGeometry x="454" y="471" width="10" height="5" as="geometry" />
        </mxCell>
        <mxCell id="2RvS-FlQX7kF21roaUc3-64" value="x&lt;sub&gt;1&lt;/sub&gt;" style="text;html=1;align=center;verticalAlign=middle;resizable=0;points=[];autosize=1;strokeColor=none;fillColor=none;" vertex="1" parent="1">
          <mxGeometry x="470" y="190" width="40" height="30" as="geometry" />
        </mxCell>
        <mxCell id="2RvS-FlQX7kF21roaUc3-65" value="x&lt;sub&gt;1&lt;/sub&gt;" style="text;html=1;align=center;verticalAlign=middle;resizable=0;points=[];autosize=1;strokeColor=none;fillColor=none;" vertex="1" parent="1">
          <mxGeometry x="560" y="190" width="40" height="30" as="geometry" />
        </mxCell>
        <mxCell id="2RvS-FlQX7kF21roaUc3-66" value="x&lt;sub&gt;2&lt;/sub&gt;" style="text;html=1;align=center;verticalAlign=middle;resizable=0;points=[];autosize=1;strokeColor=none;fillColor=none;" vertex="1" parent="1">
          <mxGeometry x="470" y="298.5" width="40" height="30" as="geometry" />
        </mxCell>
        <mxCell id="2RvS-FlQX7kF21roaUc3-67" value="x&lt;span style=&quot;font-size: 10px;&quot;&gt;&lt;sub&gt;2&lt;/sub&gt;&lt;/span&gt;" style="text;html=1;align=center;verticalAlign=middle;resizable=0;points=[];autosize=1;strokeColor=none;fillColor=none;" vertex="1" parent="1">
          <mxGeometry x="565" y="298" width="30" height="30" as="geometry" />
        </mxCell>
        <mxCell id="2RvS-FlQX7kF21roaUc3-68" value="x&lt;sub&gt;3&lt;/sub&gt;" style="text;html=1;align=center;verticalAlign=middle;resizable=0;points=[];autosize=1;strokeColor=none;fillColor=none;" vertex="1" parent="1">
          <mxGeometry x="480" y="355" width="40" height="30" as="geometry" />
        </mxCell>
        <mxCell id="2RvS-FlQX7kF21roaUc3-69" value="x&lt;sub&gt;3&lt;/sub&gt;" style="text;html=1;align=center;verticalAlign=middle;resizable=0;points=[];autosize=1;strokeColor=none;fillColor=none;" vertex="1" parent="1">
          <mxGeometry x="560" y="355" width="40" height="30" as="geometry" />
        </mxCell>
        <mxCell id="2RvS-FlQX7kF21roaUc3-70" value="x&lt;span style=&quot;font-size: 10px;&quot;&gt;&lt;sub&gt;4&lt;/sub&gt;&lt;/span&gt;" style="text;html=1;align=center;verticalAlign=middle;resizable=0;points=[];autosize=1;strokeColor=none;fillColor=none;" vertex="1" parent="1">
          <mxGeometry x="485" y="435" width="30" height="30" as="geometry" />
        </mxCell>
        <mxCell id="2RvS-FlQX7kF21roaUc3-71" value="x&lt;sub&gt;4&lt;/sub&gt;" style="text;html=1;align=center;verticalAlign=middle;resizable=0;points=[];autosize=1;strokeColor=none;fillColor=none;" vertex="1" parent="1">
          <mxGeometry x="560" y="435" width="40" height="30" as="geometry" />
        </mxCell>
        <mxCell id="2RvS-FlQX7kF21roaUc3-74" value="." style="text;html=1;align=center;verticalAlign=middle;resizable=0;points=[];autosize=1;strokeColor=none;fillColor=none;" vertex="1" parent="1">
          <mxGeometry x="483" y="427" width="30" height="30" as="geometry" />
        </mxCell>
        <mxCell id="2RvS-FlQX7kF21roaUc3-75" value="." style="text;html=1;align=center;verticalAlign=middle;resizable=0;points=[];autosize=1;strokeColor=none;fillColor=none;" vertex="1" parent="1">
          <mxGeometry x="483" y="345" width="30" height="30" as="geometry" />
        </mxCell>
        <mxCell id="2RvS-FlQX7kF21roaUc3-78" value="." style="text;html=1;align=center;verticalAlign=middle;resizable=0;points=[];autosize=1;strokeColor=none;fillColor=none;" vertex="1" parent="1">
          <mxGeometry x="472" y="290" width="30" height="30" as="geometry" />
        </mxCell>
        <mxCell id="2RvS-FlQX7kF21roaUc3-79" value="." style="text;html=1;align=center;verticalAlign=middle;resizable=0;points=[];autosize=1;strokeColor=none;fillColor=none;" vertex="1" parent="1">
          <mxGeometry x="473" y="180" width="30" height="30" as="geometry" />
        </mxCell>
        <mxCell id="2RvS-FlQX7kF21roaUc3-80" value="u" style="text;html=1;align=center;verticalAlign=middle;resizable=0;points=[];autosize=1;strokeColor=none;fillColor=none;" vertex="1" parent="1">
          <mxGeometry x="370" y="345" width="30" height="30" as="geometry" />
        </mxCell>
        <mxCell id="2RvS-FlQX7kF21roaUc3-90" value="0.5" style="shape=ext;double=1;rounded=0;whiteSpace=wrap;html=1;" vertex="1" parent="1">
          <mxGeometry x="473" y="395" width="80" height="40" as="geometry" />
        </mxCell>
      </root>
    </mxGraphModel>
  </diagram>
</mxfile>
